<svg xmlns="http://www.w3.org/2000/svg" width="40" height="40" fill="none" viewBox="0 0 40 40">
    <path fill="#fff" fill-rule="evenodd" d="M29.387 15.465c-.158-1.29-.553-2.302-1.255-3.198-.912-1.155-2.076-1.846-3.8-2.256-1.124-.273-1.578-.242-1.985.13-.378.349-.452 1.048-.163 1.5.203.33.438.447 1.09.575.87.16 1.471.369 2.017.682 1.16.671 1.7 1.722 1.758 3.423.027.799.096 1.044.375 1.327.515.518 1.433.418 1.822-.202.143-.234.165-.335.18-.878a8.654 8.654 0 0 0-.039-1.103z" clip-rule="evenodd"/>
    <path fill="#fff" fill-rule="evenodd" d="M33.93 16.918c-.229-3.95-1.77-7.127-4.528-9.362-1.553-1.257-3.431-2.12-5.49-2.54-.754-.15-2.143-.272-2.38-.203-.226.065-.544.309-.685.53-.15.239-.184.773-.056 1.082.206.516.59.699 1.665.793 1.657.146 3.366.73 4.658 1.593a9.785 9.785 0 0 1 3.404 3.91c.655 1.36 1.058 3.317 1.047 5.07-.004.634.094.993.348 1.254.384.403.944.49 1.438.224.547-.289.675-.796.58-2.351zM38.958 32.127a4.344 4.344 0 0 0-.385-.774c-.81-1.225-5.157-4.636-7.328-5.752-1.24-.638-2.158-.851-2.84-.651-.731.206-1.117.548-2.343 2.076-.495.613-1.002 1.187-1.137 1.277-.334.232-.99.42-1.452.42-1.072-.007-3.018-.704-4.515-1.62-1.162-.709-2.652-1.979-3.796-3.236-1.349-1.477-2.267-2.78-2.993-4.25-.937-1.89-1.175-3.044-.783-3.888.096-.213.225-.439.282-.51.058-.064.662-.56 1.33-1.102 1.31-1.045 1.522-1.284 1.766-2 .308-.909.225-1.837-.25-2.772-.367-.71-1.324-2.257-2.017-3.257-.919-1.315-3.205-4.127-3.661-4.507C8.014.91 6.96.794 5.798 1.246c-1.227.477-3.526 2.334-4.509 3.63C.403 6.05.063 6.881.011 7.978c-.045.902.032 1.276.507 2.43 3.72 9.054 9.268 16.283 16.892 22.022 3.982 2.999 8.112 5.281 12.396 6.842 2.498.909 3.584.954 4.862.206.54-.322 1.875-1.696 2.62-2.695 1.234-1.664 1.69-2.431 1.818-3.044.09-.42.02-1.148-.148-1.612z" clip-rule="evenodd"/>
    <path fill="#fff" fill-rule="evenodd" d="M38.555 17.825c-.082-2.234-.457-4.066-1.24-6.11-.772-2.009-1.554-3.32-3.03-5.094-1.396-1.663-2.48-2.612-4.2-3.67C27.688 1.48 24.768.505 21.496.095c-1.115-.143-1.367-.133-1.71.096-.663.434-.654 1.516.011 1.943.22.136.416.186 1.308.303 1.37.185 2.251.359 3.297.645 4.099 1.123 7.251 3.42 9.358 6.828 1.764 2.84 2.496 5.682 2.392 9.31-.036 1.227-.01 1.443.177 1.738.358.55 1.303.658 1.788.202.301-.278.358-.487.418-1.536a26.74 26.74 0 0 0 .021-1.798z" clip-rule="evenodd"/>
</svg>
