<svg xmlns="http://www.w3.org/2000/svg" width="41" height="42" fill="none" viewBox="0 0 41 42">
    <path fill="#FDFDFD" fill-rule="evenodd" d="M20.586 40.648h-.009a20.473 20.473 0 0 1-9.755-2.473L0 41l2.896-10.528A20.205 20.205 0 0 1 .171 20.315C.176 9.114 9.333 0 20.586 0c5.46.002 10.586 2.118 14.44 5.958 3.855 3.84 5.976 8.945 5.974 14.373-.004 11.2-9.159 20.312-20.414 20.317zm-9.263-6.151l.62.366a17.004 17.004 0 0 0 8.636 2.354h.007c9.352 0 16.963-7.576 16.967-16.887a16.744 16.744 0 0 0-4.965-11.946 16.893 16.893 0 0 0-11.996-4.952c-9.359 0-16.97 7.574-16.974 16.884a16.787 16.787 0 0 0 2.594 8.987l.403.639-1.714 6.231 6.422-1.676zm19.548-9.334c-.127-.212-.467-.34-.977-.593-.51-.254-3.018-1.482-3.486-1.652-.467-.17-.807-.254-1.147.254-.34.508-1.318 1.652-1.615 1.99-.298.34-.596.382-1.105.128-.51-.254-2.154-.79-4.103-2.52-1.516-1.346-2.54-3.008-2.837-3.517-.298-.508-.032-.782.224-1.036.229-.227.51-.593.765-.889.255-.296.34-.508.51-.847.17-.339.085-.635-.043-.89-.127-.253-1.147-2.752-1.572-3.769-.415-.99-.835-.855-1.148-.87a20.384 20.384 0 0 0-.978-.019c-.34 0-.892.127-1.36.635-.468.509-1.785 1.737-1.785 4.235 0 2.499 1.828 4.913 2.083 5.252.255.339 3.596 5.466 8.713 7.665 1.217.523 2.167.835 2.908 1.07 1.222.386 2.334.331 3.213.2.98-.145 3.018-1.228 3.443-2.413.425-1.186.425-2.203.297-2.414z" clip-rule="evenodd"/>
</svg>
