<svg width="36" height="36" viewBox="0 0 36 36" fill="none" xmlns="http://www.w3.org/2000/svg">
<path fill-rule="evenodd" clip-rule="evenodd" d="M0 18C0 8.05888 8.05888 0 18 0C27.9411 0 36 8.05888 36 18C36 27.9411 27.9411 36 18 36C8.05888 36 0 27.9411 0 18Z" fill="white"/>
<path fill-rule="evenodd" clip-rule="evenodd" d="M18.0009 8.3999C15.3937 8.3999 15.0665 8.4113 14.0425 8.4579C13.0205 8.5047 12.3229 8.66651 11.7125 8.90391C11.0811 9.14911 10.5454 9.47711 10.0118 10.0109C9.47784 10.5445 9.14983 11.0801 8.90383 11.7113C8.66583 12.3219 8.50383 13.0198 8.45783 14.0414C8.41202 15.0654 8.40002 15.3928 8.40002 18C8.40002 20.6072 8.41162 20.9334 8.45803 21.9574C8.50503 22.9795 8.66683 23.6771 8.90403 24.2875C9.14943 24.9189 9.47744 25.4545 10.0112 25.9881C10.5446 26.5221 11.0803 26.8509 11.7113 27.0961C12.3221 27.3335 13.0199 27.4953 14.0417 27.5421C15.0657 27.5887 15.3927 27.6001 17.9997 27.6001C20.6072 27.6001 20.9334 27.5887 21.9574 27.5421C22.9794 27.4953 23.6778 27.3335 24.2886 27.0961C24.9198 26.8509 25.4546 26.5221 25.988 25.9881C26.522 25.4545 26.85 24.9189 27.096 24.2877C27.332 23.6771 27.494 22.9793 27.542 21.9576C27.588 20.9336 27.6 20.6072 27.6 18C27.6 15.3928 27.588 15.0656 27.542 14.0416C27.494 13.0196 27.332 12.3219 27.096 11.7115C26.85 11.0801 26.522 10.5445 25.988 10.0109C25.454 9.47691 24.92 9.14891 24.288 8.90391C23.676 8.66651 22.978 8.5047 21.956 8.4579C20.932 8.4113 20.606 8.3999 17.9979 8.3999H18.0009ZM17.1397 10.1299C17.3953 10.1295 17.6805 10.1299 18.0009 10.1299C20.5641 10.1299 20.8679 10.1391 21.8801 10.1851C22.8162 10.2279 23.3242 10.3843 23.6626 10.5157C24.1106 10.6897 24.43 10.8977 24.7658 11.2337C25.1018 11.5697 25.3098 11.8897 25.4842 12.3377C25.6156 12.6758 25.7722 13.1838 25.8148 14.1198C25.8608 15.1318 25.8708 15.4358 25.8708 17.9978C25.8708 20.5598 25.8608 20.8638 25.8148 21.8758C25.772 22.8119 25.6156 23.3199 25.4842 23.6579C25.3102 24.1059 25.1018 24.4249 24.7658 24.7607C24.4298 25.0967 24.1108 25.3047 23.6626 25.4787C23.3246 25.6107 22.8162 25.7667 21.8801 25.8095C20.8681 25.8555 20.5641 25.8655 18.0009 25.8655C15.4375 25.8655 15.1337 25.8555 14.1217 25.8095C13.1857 25.7663 12.6776 25.6099 12.339 25.4785C11.891 25.3045 11.571 25.0965 11.235 24.7605C10.899 24.4245 10.691 24.1053 10.5166 23.6571C10.3852 23.3191 10.2286 22.8111 10.186 21.8751C10.14 20.863 10.1308 20.559 10.1308 17.9954C10.1308 15.4318 10.14 15.1294 10.186 14.1174C10.2288 13.1814 10.3852 12.6734 10.5166 12.3349C10.6906 11.8869 10.899 11.5669 11.235 11.2309C11.571 10.8949 11.891 10.6869 12.339 10.5125C12.6774 10.3805 13.1857 10.2245 14.1217 10.1815C15.0073 10.1415 15.3505 10.1295 17.1397 10.1275V10.1299ZM23.1254 11.7239C22.4894 11.7239 21.9734 12.2394 21.9734 12.8756C21.9734 13.5116 22.4894 14.0276 23.1254 14.0276C23.7614 14.0276 24.2774 13.5116 24.2774 12.8756C24.2774 12.2396 23.7614 11.7235 23.1254 11.7235V11.7239ZM18.0009 13.07C15.2783 13.07 13.0708 15.2774 13.0708 18C13.0708 20.7226 15.2783 22.9291 18.0009 22.9291C20.7235 22.9291 22.9301 20.7226 22.9301 18C22.9301 15.2774 20.7233 13.07 18.0007 13.07H18.0009ZM18.0009 14.8C19.7681 14.8 21.2009 16.2326 21.2009 18C21.2009 19.7672 19.7681 21.2 18.0009 21.2C16.2335 21.2 14.8009 19.7672 14.8009 18C14.8009 16.2326 16.2335 14.8 18.0009 14.8Z" fill="#D62976"/>
</svg>
