<svg width="62" height="62" viewBox="0 0 62 62" fill="none" xmlns="http://www.w3.org/2000/svg">
<path fill-rule="evenodd" clip-rule="evenodd" d="M0 31C0 13.888 13.888 0 31 0C48.112 0 62 13.888 62 31C62 48.112 48.112 62 31 62C13.888 62 0 48.112 0 31ZM36.6254 31.8338L38.6129 29.8021C39.8717 28.5433 40.6667 26.7767 40.6667 24.8333C40.6667 19.9529 36.7138 16 31.8333 16C26.9529 16 23 19.9529 23 24.8333H27.4167C27.4167 22.4042 29.4042 20.4167 31.8333 20.4167C34.2625 20.4167 36.25 22.4042 36.25 24.8333C36.25 26.0479 35.7642 27.1521 34.9471 27.9471L32.2088 30.7296C30.6188 32.3417 29.625 34.55 29.625 36.9792V38.0833H34.0417C34.0417 34.7708 35.0354 33.4458 36.6254 31.8338ZM31.8333 46.9167C33.053 46.9167 34.0417 45.928 34.0417 44.7083C34.0417 43.4887 33.053 42.5 31.8333 42.5C30.6137 42.5 29.625 43.4887 29.625 44.7083C29.625 45.928 30.6137 46.9167 31.8333 46.9167Z" fill="#FFCF24"/>
</svg>
