<svg width="18" height="16" viewBox="0 0 18 16" fill="none" xmlns="http://www.w3.org/2000/svg">
<path fill-rule="evenodd" clip-rule="evenodd" d="M8.4609 4.63067L8.49867 5.25351L7.86914 5.17725C5.57765 4.88489 3.57574 3.89343 1.876 2.22829L1.04502 1.40207L0.830981 2.0122C0.377719 3.37228 0.667303 4.80863 1.6116 5.77467C2.11523 6.30853 2.00191 6.3848 1.13316 6.06702C0.830981 5.96533 0.566578 5.88907 0.541397 5.9272C0.453263 6.01618 0.755438 7.17288 0.99466 7.63048C1.32202 8.26603 1.98932 8.88887 2.71958 9.25749L3.33652 9.54984L2.60626 9.56255C1.90118 9.56255 1.876 9.57527 1.95155 9.8422C2.20336 10.6684 3.19802 11.5455 4.30599 11.9268L5.08661 12.1937L4.40672 12.6005C3.39947 13.1852 2.21595 13.5157 1.03243 13.5411C0.465853 13.5538 0 13.6047 0 13.6428C0 13.7699 1.53606 14.4817 2.42999 14.7614C5.11179 15.5876 8.29722 15.2317 10.6894 13.8208C12.3892 12.8166 14.0889 10.8209 14.8821 8.88887C15.3102 7.85928 15.7383 5.97804 15.7383 5.07556C15.7383 4.49085 15.7761 4.41459 16.4811 3.71548C16.8966 3.30873 17.2869 2.86384 17.3625 2.73673C17.4884 2.49522 17.4758 2.49522 16.8337 2.71131C15.7635 3.09264 15.6124 3.0418 16.1412 2.4698C16.5315 2.06305 16.9973 1.32581 16.9973 1.10972C16.9973 1.07159 16.8085 1.13514 16.5944 1.24954C16.3678 1.37665 15.8642 1.56732 15.4865 1.68171L14.8066 1.8978L14.1896 1.47834C13.8497 1.24954 13.3712 0.995319 13.1194 0.919053C12.4773 0.741098 11.4952 0.76652 10.9161 0.969897C9.34225 1.54189 8.34759 3.01637 8.4609 4.63067Z" fill="white"/>
</svg>
