<svg width="36" height="36" viewBox="0 0 36 36" fill="none" xmlns="http://www.w3.org/2000/svg">
<path fill-rule="evenodd" clip-rule="evenodd" d="M0 18C0 8.05888 8.05888 0 18 0C27.9411 0 36 8.05888 36 18C36 27.9411 27.9411 36 18 36C8.05888 36 0 27.9411 0 18Z" fill="white"/>
<path fill-rule="evenodd" clip-rule="evenodd" d="M17.7416 24.5071C17.7416 24.5071 18.0881 24.4693 18.2656 24.2822C18.4281 24.1107 18.4224 23.7872 18.4224 23.7872C18.4224 23.7872 18.4008 22.2764 19.1155 22.0533C19.8198 21.8339 20.7241 23.5143 21.6838 24.1605C22.4088 24.6491 22.9591 24.5421 22.9591 24.5421L25.5237 24.5071C25.5237 24.5071 26.8647 24.426 26.2289 23.3908C26.1764 23.306 25.858 22.6248 24.3226 21.2255C22.714 19.7608 22.93 19.9977 24.8664 17.4637C26.0458 15.9206 26.5172 14.9786 26.3698 14.5757C26.2299 14.1904 25.3622 14.2927 25.3622 14.2927L22.4755 14.3103C22.4755 14.3103 22.2614 14.2817 22.1027 14.3748C21.9477 14.466 21.8472 14.679 21.8472 14.679C21.8472 14.679 21.3908 15.8727 20.7814 16.8885C19.4958 19.0308 18.9821 19.1441 18.7718 19.0114C18.2825 18.7007 18.4046 17.7651 18.4046 17.1005C18.4046 15.0237 18.7258 14.1582 17.7801 13.9342C17.4665 13.8595 17.2354 13.8107 16.4325 13.8024C15.4024 13.7922 14.5309 13.806 14.037 14.0429C13.7083 14.2006 13.4547 14.5527 13.6097 14.573C13.8003 14.5979 14.2323 14.6873 14.4614 14.9933C14.7572 15.3888 14.7469 16.2755 14.7469 16.2755C14.7469 16.2755 14.9169 18.7201 14.3497 19.0234C13.9609 19.2317 13.4275 18.8068 12.2809 16.8627C11.694 15.8672 11.2507 14.7665 11.2507 14.7665C11.2507 14.7665 11.1653 14.561 11.0122 14.4504C10.8272 14.3167 10.569 14.2752 10.569 14.2752L7.82594 14.2927C7.82594 14.2927 7.41369 14.3038 7.2625 14.4799C7.12821 14.6357 7.25217 14.9592 7.25217 14.9592C7.25217 14.9592 9.39983 19.8917 11.832 22.3778C14.0623 24.6564 16.5941 24.5071 16.5941 24.5071H17.7416Z" fill="#4C6C91"/>
</svg>
