<svg width="20" height="12" viewBox="0 0 20 12" fill="none" xmlns="http://www.w3.org/2000/svg">
<path fill-rule="evenodd" clip-rule="evenodd" d="M10.7415 11.5071C10.7415 11.5071 11.0881 11.4693 11.2656 11.2822C11.428 11.1107 11.4224 10.7872 11.4224 10.7872C11.4224 10.7872 11.4008 9.27637 12.1154 9.0533C12.8197 8.83392 13.724 10.5143 14.6838 11.1605C15.4087 11.6491 15.959 11.5421 15.959 11.5421L18.5236 11.5071C18.5236 11.5071 19.8646 11.426 19.2289 10.3908C19.1763 10.306 18.858 9.62481 17.3226 8.22553C15.7139 6.76081 15.9299 6.99771 17.8663 4.46371C19.0458 2.92063 19.5172 1.97856 19.3697 1.57574C19.2298 1.19043 18.3621 1.29275 18.3621 1.29275L15.4754 1.31026C15.4754 1.31026 15.2613 1.28169 15.1026 1.37479C14.9477 1.46604 14.8472 1.67898 14.8472 1.67898C14.8472 1.67898 14.3908 2.8727 13.7813 3.88851C12.4957 6.03075 11.9821 6.14413 11.7717 6.01139C11.2825 5.70075 11.4045 4.76513 11.4045 4.10052C11.4045 2.02373 11.7257 1.15817 10.7801 0.934171C10.4664 0.859506 10.2354 0.810651 9.43248 0.802355C8.40232 0.792215 7.53086 0.806042 7.03691 1.04294C6.70823 1.20057 6.45468 1.55269 6.60963 1.57297C6.80026 1.59786 7.23223 1.68727 7.46137 1.99331C7.75718 2.38876 7.74685 3.27552 7.74685 3.27552C7.74685 3.27552 7.91682 5.72011 7.34962 6.02338C6.96084 6.2317 6.42745 5.80676 5.28084 3.8627C4.69392 2.86717 4.25068 1.76655 4.25068 1.76655C4.25068 1.76655 4.16522 1.56099 4.01215 1.45037C3.82716 1.31671 3.56891 1.27523 3.56891 1.27523L0.825879 1.29275C0.825879 1.29275 0.413626 1.30381 0.262436 1.47987C0.128148 1.63565 0.252106 1.9592 0.252106 1.9592C0.252106 1.9592 2.39977 6.8917 4.83196 9.37777C7.06226 11.6564 9.594 11.5071 9.594 11.5071H10.7415Z" fill="white"/>
</svg>
