<svg xmlns="http://www.w3.org/2000/svg" width="174" height="174" fill="none" viewBox="0 0 174 174">
    <path fill="#000" d="M6 0H0v6h6V0zM12 0H6v6h6V0zM18 0h-6v6h6V0zM24 0h-6v6h6V0zM30 0h-6v6h6V0zM36 0h-6v6h6V0zM42 0h-6v6h6V0zM60 0h-6v6h6V0zM90 0h-6v6h6V0zM96 0h-6v6h6V0zM102 0h-6v6h6V0zM114 0h-6v6h6V0zM120 0h-6v6h6V0zM126 0h-6v6h6V0zM138 0h-6v6h6V0zM144 0h-6v6h6V0zM150 0h-6v6h6V0zM156 0h-6v6h6V0zM162 0h-6v6h6V0zM168 0h-6v6h6V0zM174 0h-6v6h6V0zM6 6H0v6h6V6zM42 6h-6v6h6V6zM54 6h-6v6h6V6zM60 6h-6v6h6V6zM72 6h-6v6h6V6zM78 6h-6v6h6V6zM84 6h-6v6h6V6zM90 6h-6v6h6V6zM96 6h-6v6h6V6zM126 6h-6v6h6V6zM138 6h-6v6h6V6zM174 6h-6v6h6V6zM6 12H0v6h6v-6zM18 12h-6v6h6v-6zM24 12h-6v6h6v-6zM30 12h-6v6h6v-6zM42 12h-6v6h6v-6zM60 12h-6v6h6v-6zM66 12h-6v6h6v-6zM72 12h-6v6h6v-6zM90 12h-6v6h6v-6zM114 12h-6v6h6v-6zM120 12h-6v6h6v-6zM138 12h-6v6h6v-6zM150 12h-6v6h6v-6zM156 12h-6v6h6v-6zM162 12h-6v6h6v-6zM174 12h-6v6h6v-6zM6 18H0v6h6v-6zM18 18h-6v6h6v-6zM24 18h-6v6h6v-6zM30 18h-6v6h6v-6zM42 18h-6v6h6v-6zM54 18h-6v6h6v-6zM60 18h-6v6h6v-6zM72 18h-6v6h6v-6zM90 18h-6v6h6v-6zM96 18h-6v6h6v-6zM102 18h-6v6h6v-6zM108 18h-6v6h6v-6zM120 18h-6v6h6v-6zM138 18h-6v6h6v-6zM150 18h-6v6h6v-6zM156 18h-6v6h6v-6zM162 18h-6v6h6v-6zM174 18h-6v6h6v-6zM6 24H0v6h6v-6zM18 24h-6v6h6v-6zM24 24h-6v6h6v-6zM30 24h-6v6h6v-6zM42 24h-6v6h6v-6zM66 24h-6v6h6v-6zM78 24h-6v6h6v-6zM84 24h-6v6h6v-6zM102 24h-6v6h6v-6zM120 24h-6v6h6v-6zM126 24h-6v6h6v-6zM138 24h-6v6h6v-6zM150 24h-6v6h6v-6zM156 24h-6v6h6v-6zM162 24h-6v6h6v-6zM174 24h-6v6h6v-6zM6 30H0v6h6v-6zM42 30h-6v6h6v-6zM54 30h-6v6h6v-6zM66 30h-6v6h6v-6zM96 30h-6v6h6v-6zM138 30h-6v6h6v-6zM174 30h-6v6h6v-6zM6 36H0v6h6v-6zM12 36H6v6h6v-6zM18 36h-6v6h6v-6zM24 36h-6v6h6v-6zM30 36h-6v6h6v-6zM36 36h-6v6h6v-6zM42 36h-6v6h6v-6zM54 36h-6v6h6v-6zM66 36h-6v6h6v-6zM78 36h-6v6h6v-6zM90 36h-6v6h6v-6zM102 36h-6v6h6v-6zM114 36h-6v6h6v-6zM126 36h-6v6h6v-6zM138 36h-6v6h6v-6zM144 36h-6v6h6v-6zM150 36h-6v6h6v-6zM156 36h-6v6h6v-6zM162 36h-6v6h6v-6zM168 36h-6v6h6v-6zM174 36h-6v6h6v-6zM78 42h-6v6h6v-6zM90 42h-6v6h6v-6zM120 42h-6v6h6v-6zM126 42h-6v6h6v-6zM6 48H0v6h6v-6zM12 48H6v6h6v-6zM18 48h-6v6h6v-6zM24 48h-6v6h6v-6zM30 48h-6v6h6v-6zM42 48h-6v6h6v-6zM48 48h-6v6h6v-6zM54 48h-6v6h6v-6zM60 48h-6v6h6v-6zM66 48h-6v6h6v-6zM78 48h-6v6h6v-6zM90 48h-6v6h6v-6zM108 48h-6v6h6v-6zM114 48h-6v6h6v-6zM132 48h-6v6h6v-6zM144 48h-6v6h6v-6zM156 48h-6v6h6v-6zM168 48h-6v6h6v-6zM24 54h-6v6h6v-6zM60 54h-6v6h6v-6zM90 54h-6v6h6v-6zM102 54h-6v6h6v-6zM126 54h-6v6h6v-6zM132 54h-6v6h6v-6zM144 54h-6v6h6v-6zM150 54h-6v6h6v-6zM162 54h-6v6h6v-6zM168 54h-6v6h6v-6zM6 60H0v6h6v-6zM30 60h-6v6h6v-6zM42 60h-6v6h6v-6zM60 60h-6v6h6v-6zM72 60h-6v6h6v-6zM78 60h-6v6h6v-6zM90 60h-6v6h6v-6zM96 60h-6v6h6v-6zM108 60h-6v6h6v-6zM150 60h-6v6h6v-6zM12 66H6v6h6v-6zM24 66h-6v6h6v-6zM30 66h-6v6h6v-6zM36 66h-6v6h6v-6zM48 66h-6v6h6v-6zM54 66h-6v6h6v-6zM60 66h-6v6h6v-6zM66 66h-6v6h6v-6zM72 66h-6v6h6v-6zM90 66h-6v6h6v-6zM96 66h-6v6h6v-6zM102 66h-6v6h6v-6zM132 66h-6v6h6v-6zM138 66h-6v6h6v-6zM150 66h-6v6h6v-6zM156 66h-6v6h6v-6zM168 66h-6v6h6v-6zM6 72H0v6h6v-6zM24 72h-6v6h6v-6zM42 72h-6v6h6v-6zM48 72h-6v6h6v-6zM54 72h-6v6h6v-6zM60 72h-6v6h6v-6zM72 72h-6v6h6v-6zM90 72h-6v6h6v-6zM96 72h-6v6h6v-6zM102 72h-6v6h6v-6zM108 72h-6v6h6v-6zM126 72h-6v6h6v-6zM144 72h-6v6h6v-6zM156 72h-6v6h6v-6zM162 72h-6v6h6v-6zM168 72h-6v6h6v-6zM174 72h-6v6h6v-6zM24 78h-6v6h6v-6zM30 78h-6v6h6v-6zM36 78h-6v6h6v-6zM66 78h-6v6h6v-6zM78 78h-6v6h6v-6zM90 78h-6v6h6v-6zM114 78h-6v6h6v-6zM120 78h-6v6h6v-6zM138 78h-6v6h6v-6zM144 78h-6v6h6v-6zM150 78h-6v6h6v-6zM162 78h-6v6h6v-6zM174 78h-6v6h6v-6zM18 84h-6v6h6v-6zM30 84h-6v6h6v-6zM36 84h-6v6h6v-6zM42 84h-6v6h6v-6zM48 84h-6v6h6v-6zM54 84h-6v6h6v-6zM60 84h-6v6h6v-6zM84 84h-6v6h6v-6zM96 84h-6v6h6v-6zM108 84h-6v6h6v-6zM144 84h-6v6h6v-6zM150 84h-6v6h6v-6zM156 84h-6v6h6v-6zM168 84h-6v6h6v-6zM12 90H6v6h6v-6zM18 90h-6v6h6v-6zM36 90h-6v6h6v-6zM54 90h-6v6h6v-6zM60 90h-6v6h6v-6zM78 90h-6v6h6v-6zM90 90h-6v6h6v-6zM96 90h-6v6h6v-6zM114 90h-6v6h6v-6zM126 90h-6v6h6v-6zM138 90h-6v6h6v-6zM150 90h-6v6h6v-6zM156 90h-6v6h6v-6zM168 90h-6v6h6v-6zM6 96H0v6h6v-6zM12 96H6v6h6v-6zM18 96h-6v6h6v-6zM24 96h-6v6h6v-6zM30 96h-6v6h6v-6zM42 96h-6v6h6v-6zM48 96h-6v6h6v-6zM60 96h-6v6h6v-6zM66 96h-6v6h6v-6zM78 96h-6v6h6v-6zM84 96h-6v6h6v-6zM102 96h-6v6h6v-6zM108 96h-6v6h6v-6zM126 96h-6v6h6v-6zM156 96h-6v6h6v-6zM162 96h-6v6h6v-6zM6 102H0v6h6v-6zM12 102H6v6h6v-6zM24 102h-6v6h6v-6zM30 102h-6v6h6v-6zM54 102h-6v6h6v-6zM60 102h-6v6h6v-6zM90 102h-6v6h6v-6zM108 102h-6v6h6v-6zM114 102h-6v6h6v-6zM120 102h-6v6h6v-6zM132 102h-6v6h6v-6zM138 102h-6v6h6v-6zM144 102h-6v6h6v-6zM150 102h-6v6h6v-6zM156 102h-6v6h6v-6zM174 102h-6v6h6v-6zM6 108H0v6h6v-6zM24 108h-6v6h6v-6zM42 108h-6v6h6v-6zM60 108h-6v6h6v-6zM72 108h-6v6h6v-6zM78 108h-6v6h6v-6zM84 108h-6v6h6v-6zM96 108h-6v6h6v-6zM102 108h-6v6h6v-6zM108 108h-6v6h6v-6zM114 108h-6v6h6v-6zM132 108h-6v6h6v-6zM138 108h-6v6h6v-6zM156 108h-6v6h6v-6zM168 108h-6v6h6v-6zM6 114H0v6h6v-6zM24 114h-6v6h6v-6zM36 114h-6v6h6v-6zM48 114h-6v6h6v-6zM54 114h-6v6h6v-6zM60 114h-6v6h6v-6zM66 114h-6v6h6v-6zM72 114h-6v6h6v-6zM96 114h-6v6h6v-6zM114 114h-6v6h6v-6zM144 114h-6v6h6v-6zM150 114h-6v6h6v-6zM174 114h-6v6h6v-6zM6 120H0v6h6v-6zM18 120h-6v6h6v-6zM36 120h-6v6h6v-6zM42 120h-6v6h6v-6zM48 120h-6v6h6v-6zM60 120h-6v6h6v-6zM72 120h-6v6h6v-6zM102 120h-6v6h6v-6zM108 120h-6v6h6v-6zM120 120h-6v6h6v-6zM126 120h-6v6h6v-6zM132 120h-6v6h6v-6zM138 120h-6v6h6v-6zM144 120h-6v6h6v-6zM150 120h-6v6h6v-6zM156 120h-6v6h6v-6zM162 120h-6v6h6v-6zM168 120h-6v6h6v-6zM54 126h-6v6h6v-6zM66 126h-6v6h6v-6zM78 126h-6v6h6v-6zM84 126h-6v6h6v-6zM108 126h-6v6h6v-6zM114 126h-6v6h6v-6zM120 126h-6v6h6v-6zM126 126h-6v6h6v-6zM150 126h-6v6h6v-6zM162 126h-6v6h6v-6zM174 126h-6v6h6v-6zM6 132H0v6h6v-6zM12 132H6v6h6v-6zM18 132h-6v6h6v-6zM24 132h-6v6h6v-6zM30 132h-6v6h6v-6zM36 132h-6v6h6v-6zM42 132h-6v6h6v-6zM54 132h-6v6h6v-6zM66 132h-6v6h6v-6zM84 132h-6v6h6v-6zM90 132h-6v6h6v-6zM96 132h-6v6h6v-6zM102 132h-6v6h6v-6zM108 132h-6v6h6v-6zM114 132h-6v6h6v-6zM120 132h-6v6h6v-6zM126 132h-6v6h6v-6zM138 132h-6v6h6v-6zM150 132h-6v6h6v-6zM168 132h-6v6h6v-6zM6 138H0v6h6v-6zM42 138h-6v6h6v-6zM78 138h-6v6h6v-6zM84 138h-6v6h6v-6zM96 138h-6v6h6v-6zM126 138h-6v6h6v-6zM150 138h-6v6h6v-6zM6 144H0v6h6v-6zM18 144h-6v6h6v-6zM24 144h-6v6h6v-6zM30 144h-6v6h6v-6zM42 144h-6v6h6v-6zM54 144h-6v6h6v-6zM60 144h-6v6h6v-6zM66 144h-6v6h6v-6zM78 144h-6v6h6v-6zM90 144h-6v6h6v-6zM102 144h-6v6h6v-6zM108 144h-6v6h6v-6zM126 144h-6v6h6v-6zM132 144h-6v6h6v-6zM138 144h-6v6h6v-6zM144 144h-6v6h6v-6zM150 144h-6v6h6v-6zM156 144h-6v6h6v-6zM162 144h-6v6h6v-6zM168 144h-6v6h6v-6zM174 144h-6v6h6v-6zM6 150H0v6h6v-6zM18 150h-6v6h6v-6zM24 150h-6v6h6v-6zM30 150h-6v6h6v-6zM42 150h-6v6h6v-6zM54 150h-6v6h6v-6zM60 150h-6v6h6v-6zM66 150h-6v6h6v-6zM108 150h-6v6h6v-6zM114 150h-6v6h6v-6zM126 150h-6v6h6v-6zM132 150h-6v6h6v-6zM168 150h-6v6h6v-6zM174 150h-6v6h6v-6zM6 156H0v6h6v-6zM18 156h-6v6h6v-6zM24 156h-6v6h6v-6zM30 156h-6v6h6v-6zM42 156h-6v6h6v-6zM54 156h-6v6h6v-6zM60 156h-6v6h6v-6zM66 156h-6v6h6v-6zM72 156h-6v6h6v-6zM78 156h-6v6h6v-6zM96 156h-6v6h6v-6zM102 156h-6v6h6v-6zM108 156h-6v6h6v-6zM114 156h-6v6h6v-6zM138 156h-6v6h6v-6zM144 156h-6v6h6v-6zM150 156h-6v6h6v-6zM156 156h-6v6h6v-6zM162 156h-6v6h6v-6zM168 156h-6v6h6v-6zM6 162H0v6h6v-6zM42 162h-6v6h6v-6zM54 162h-6v6h6v-6zM60 162h-6v6h6v-6zM66 162h-6v6h6v-6zM72 162h-6v6h6v-6zM90 162h-6v6h6v-6zM96 162h-6v6h6v-6zM114 162h-6v6h6v-6zM120 162h-6v6h6v-6zM126 162h-6v6h6v-6zM132 162h-6v6h6v-6zM150 162h-6v6h6v-6zM156 162h-6v6h6v-6zM168 162h-6v6h6v-6zM6 168H0v6h6v-6zM12 168H6v6h6v-6zM18 168h-6v6h6v-6zM24 168h-6v6h6v-6zM30 168h-6v6h6v-6zM36 168h-6v6h6v-6zM42 168h-6v6h6v-6zM54 168h-6v6h6v-6zM66 168h-6v6h6v-6zM72 168h-6v6h6v-6zM96 168h-6v6h6v-6zM102 168h-6v6h6v-6zM108 168h-6v6h6v-6zM114 168h-6v6h6v-6zM138 168h-6v6h6v-6z"/>
</svg>
