<svg xmlns="http://www.w3.org/2000/svg" width="34" height="34" fill="none" viewBox="0 0 34 34">
    <path fill="#91969A" d="M24.921 21.93h-1.575l-.558-.538a12.902 12.902 0 0 0 3.13-8.433C25.918 5.802 20.116 0 12.958 0 5.803 0 0 5.802 0 12.959s5.802 12.959 12.959 12.959c3.21 0 6.16-1.176 8.433-3.13l.538.558v1.575l8.482 8.465a2.103 2.103 0 0 0 2.974-2.974L24.92 21.93zm-11.962 0a8.96 8.96 0 0 1-8.972-8.971 8.96 8.96 0 0 1 8.972-8.972 8.96 8.96 0 0 1 8.971 8.972 8.96 8.96 0 0 1-8.971 8.971z"/>
</svg>
