<svg xmlns="http://www.w3.org/2000/svg" width="36" height="36" fill="none" viewBox="0 0 36 36">
    <path fill="#fff" d="M32 4v28H4V4h28zm2.2-4H1.8C.8 0 0 .8 0 1.8v32.4C0 35 .8 36 1.8 36h32.4c.8 0 1.8-1 1.8-1.8V1.8c0-1-1-1.8-1.8-1.8zM16 10a2 2 0 0 1 2-2h8a2 2 0 1 1 0 4h-8a2 2 0 0 1-2-2zm0 8a2 2 0 0 1 2-2h8a2 2 0 1 1 0 4h-8a2 2 0 0 1-2-2zm0 8a2 2 0 0 1 2-2h8a2 2 0 1 1 0 4h-8a2 2 0 0 1-2-2zM8 10a2 2 0 1 1 4 0 2 2 0 0 1-4 0zm0 8a2 2 0 1 1 4 0 2 2 0 0 1-4 0zm0 8a2 2 0 1 1 4 0 2 2 0 0 1-4 0z"/>
</svg>
